# xmcd CD database file
#
# Track frame offsets:
#	150
#	16882
#	34312
#	57000
#	74320
#	106147
#	130455
#	156935
#	177527
#	189827
#	212582
#	243572
#	267287
#	287370
#	303367
#
# Disc length: 4666 seconds
#
# Revision: 0
# Processed by: cddbd v1.5.1PL2 Copyright (c) Steve Scherf et al.
# Submitted via: CD2WAV32(JP) R3.22
#
DISCID=d012380f
DTITLE=仲井戸麗市 - CHABO'S BEST ”HEART”
DYEAR=2003
DGENRE=JPop
TTITLE0=ティーンエイジャー
TTITLE1=ホーボーへ（アメリカン・フォークソングへのレクイエム）
TTITLE2=スケッチ'89・夏
TTITLE3=ねぇ HISAKO
TTITLE4=Holiday
TTITLE5=サイクリング
TTITLE6=GLORY DAY
TTITLE7=唄
TTITLE8=カルピス
TTITLE9=はぐれた遠い子供たちへ
TTITLE10=ガルシアの風
TTITLE11=いつか笑える日
TTITLE12=年の瀬'93
TTITLE13=プレゼント
TTITLE14=My R&R
EXTD=
EXTT0=
EXTT1=
EXTT2=
EXTT3=
EXTT4=
EXTT5=
EXTT6=
EXTT7=
EXTT8=
EXTT9=
EXTT10=
EXTT11=
EXTT12=
EXTT13=
EXTT14=
PLAYORDER=
